<svg width="17" height="17" viewBox="0 0 17 17" fill="none" xmlns="http://www.w3.org/2000/svg">
<g clip-path="url(#clip0_1_11602)">
<path fill-rule="evenodd" clip-rule="evenodd" d="M16.4531 8.87771C16.4531 9.66771 15.1731 10.2577 14.9331 10.9677C14.6931 11.6777 15.3731 12.9677 14.9331 13.5577C14.4931 14.1477 13.0931 13.9077 12.4731 14.3577C11.8531 14.8077 11.6831 16.1977 10.9331 16.4477C10.1831 16.6977 9.26313 15.6477 8.46313 15.6477C7.66313 15.6477 6.71313 16.6477 5.99312 16.4477C5.27312 16.2477 5.07312 14.8077 4.45312 14.3577C3.83313 13.9077 2.45312 14.1777 1.99312 13.5577C1.53312 12.9377 2.22312 11.7177 1.99312 10.9677C1.76312 10.2177 0.453125 9.66771 0.453125 8.87771C0.453125 8.08771 1.73312 7.49771 1.97312 6.78771C2.21312 6.07771 1.53312 4.78771 1.97312 4.19771C2.41313 3.60771 3.82312 3.84771 4.45312 3.39771C5.08313 2.94771 5.23313 1.55771 5.98313 1.27771C6.73313 0.997706 7.65312 2.10771 8.45312 2.10771C9.25313 2.10771 10.2031 1.10771 10.9231 1.30771C11.6431 1.50771 11.8331 2.94771 12.4531 3.39771C13.0731 3.84771 14.4531 3.57771 14.9131 4.19771C15.3731 4.81771 14.6831 6.03771 14.9131 6.78771C15.1431 7.53771 16.4531 8.08771 16.4531 8.87771Z" fill="#23A559"/>
</g>
<g clip-path="url(#clip1_1_11602)">
<path d="M7.87832 12.4141L4.48828 9.87159L5.48535 8.51558L7.47949 10.0411L11.1088 5.26514L12.4648 6.26221L7.87832 12.4141Z" fill="white"/>
</g>
<defs>
<clipPath id="clip0_1_11602">
<rect width="16" height="16" fill="white" transform="translate(0.453125 0.87793)"/>
</clipPath>
<clipPath id="clip1_1_11602">
<rect width="15.9531" height="16.0469" fill="white" transform="translate(0.5 0.831055)"/>
</clipPath>
</defs>
</svg>
